<mxfile host="app.diagrams.net" modified="2023-05-13T17:03:25.924Z" agent="Mozilla/5.0 (Windows NT 10.0; Win64; x64) AppleWebKit/537.36 (KHTML, like Gecko) Chrome/113.0.0.0 Safari/537.36" etag="4t_fIbO7UDfyGApozKNe" version="21.3.0" type="device">
  <diagram name="Страница 1" id="0cWE_3n6KWokTZBstQrs">
    <mxGraphModel dx="-866" dy="1961" grid="1" gridSize="10" guides="1" tooltips="1" connect="1" arrows="1" fold="1" page="1" pageScale="1" pageWidth="827" pageHeight="1169" math="0" shadow="0">
      <root>
        <mxCell id="0" />
        <mxCell id="1" parent="0" />
        <mxCell id="_BmbQyzahC0__BQtfnTP-1" value="Node" style="swimlane;fontStyle=3;align=center;verticalAlign=top;childLayout=stackLayout;horizontal=1;startSize=26;horizontalStack=0;resizeParent=1;resizeParentMax=0;resizeLast=0;collapsible=1;marginBottom=0;fontSize=16;" vertex="1" parent="1">
          <mxGeometry x="2710" y="-946" width="250" height="130" as="geometry" />
        </mxCell>
        <mxCell id="_BmbQyzahC0__BQtfnTP-2" value="# state: String " style="text;strokeColor=none;fillColor=none;align=left;verticalAlign=top;spacingLeft=4;spacingRight=4;overflow=hidden;rotatable=0;points=[[0,0.5],[1,0.5]];portConstraint=eastwest;fontStyle=2;fontSize=16;" vertex="1" parent="_BmbQyzahC0__BQtfnTP-1">
          <mxGeometry y="26" width="250" height="26" as="geometry" />
        </mxCell>
        <mxCell id="_BmbQyzahC0__BQtfnTP-3" value="" style="line;strokeWidth=1;fillColor=none;align=left;verticalAlign=middle;spacingTop=-1;spacingLeft=3;spacingRight=3;rotatable=0;labelPosition=right;points=[];portConstraint=eastwest;strokeColor=inherit;fontSize=16;" vertex="1" parent="_BmbQyzahC0__BQtfnTP-1">
          <mxGeometry y="52" width="250" height="8" as="geometry" />
        </mxCell>
        <mxCell id="_BmbQyzahC0__BQtfnTP-4" value="+ start(): void&#xa;+ *methods for setting status*&#xa;+ *methods for checking status*&#xa;" style="text;strokeColor=none;fillColor=none;align=left;verticalAlign=top;spacingLeft=4;spacingRight=4;overflow=hidden;rotatable=0;points=[[0,0.5],[1,0.5]];portConstraint=eastwest;fontStyle=2;fontSize=16;" vertex="1" parent="_BmbQyzahC0__BQtfnTP-1">
          <mxGeometry y="60" width="250" height="70" as="geometry" />
        </mxCell>
        <mxCell id="_BmbQyzahC0__BQtfnTP-5" value="LeafNode" style="swimlane;fontStyle=3;align=center;verticalAlign=top;childLayout=stackLayout;horizontal=1;startSize=26;horizontalStack=0;resizeParent=1;resizeParentMax=0;resizeLast=0;collapsible=1;marginBottom=0;fontSize=16;" vertex="1" parent="1">
          <mxGeometry x="3260" y="-780" width="160" height="34" as="geometry" />
        </mxCell>
        <mxCell id="_BmbQyzahC0__BQtfnTP-6" value="" style="line;strokeWidth=1;fillColor=none;align=left;verticalAlign=middle;spacingTop=-1;spacingLeft=3;spacingRight=3;rotatable=0;labelPosition=right;points=[];portConstraint=eastwest;strokeColor=inherit;fontSize=16;" vertex="1" parent="_BmbQyzahC0__BQtfnTP-5">
          <mxGeometry y="26" width="160" height="8" as="geometry" />
        </mxCell>
        <mxCell id="_BmbQyzahC0__BQtfnTP-7" value="Action" style="swimlane;fontStyle=3;align=center;verticalAlign=top;childLayout=stackLayout;horizontal=1;startSize=26;horizontalStack=0;resizeParent=1;resizeParentMax=0;resizeLast=0;collapsible=1;marginBottom=0;fontSize=16;" vertex="1" parent="1">
          <mxGeometry x="3210" y="-670" width="60" height="34" as="geometry">
            <mxRectangle x="1870" y="-30" width="80" height="30" as="alternateBounds" />
          </mxGeometry>
        </mxCell>
        <mxCell id="_BmbQyzahC0__BQtfnTP-8" value="" style="line;strokeWidth=1;fillColor=none;align=left;verticalAlign=middle;spacingTop=-1;spacingLeft=3;spacingRight=3;rotatable=0;labelPosition=right;points=[];portConstraint=eastwest;strokeColor=inherit;fontSize=16;" vertex="1" parent="_BmbQyzahC0__BQtfnTP-7">
          <mxGeometry y="26" width="60" height="8" as="geometry" />
        </mxCell>
        <mxCell id="_BmbQyzahC0__BQtfnTP-9" value="Condition" style="swimlane;fontStyle=3;align=center;verticalAlign=top;childLayout=stackLayout;horizontal=1;startSize=26;horizontalStack=0;resizeParent=1;resizeParentMax=0;resizeLast=0;collapsible=1;marginBottom=0;fontSize=16;" vertex="1" parent="1">
          <mxGeometry x="3280" y="-670" width="90" height="34" as="geometry" />
        </mxCell>
        <mxCell id="_BmbQyzahC0__BQtfnTP-10" value="" style="line;strokeWidth=1;fillColor=none;align=left;verticalAlign=middle;spacingTop=-1;spacingLeft=3;spacingRight=3;rotatable=0;labelPosition=right;points=[];portConstraint=eastwest;strokeColor=inherit;fontSize=16;" vertex="1" parent="_BmbQyzahC0__BQtfnTP-9">
          <mxGeometry y="26" width="90" height="8" as="geometry" />
        </mxCell>
        <mxCell id="_BmbQyzahC0__BQtfnTP-11" value="Link" style="swimlane;fontStyle=3;align=center;verticalAlign=top;childLayout=stackLayout;horizontal=1;startSize=26;horizontalStack=0;resizeParent=1;resizeParentMax=0;resizeLast=0;collapsible=1;marginBottom=0;fontSize=16;" vertex="1" parent="1">
          <mxGeometry x="3380" y="-670" width="140" height="86" as="geometry" />
        </mxCell>
        <mxCell id="_BmbQyzahC0__BQtfnTP-12" value="- root: Root" style="text;strokeColor=none;fillColor=none;align=left;verticalAlign=top;spacingLeft=4;spacingRight=4;overflow=hidden;rotatable=0;points=[[0,0.5],[1,0.5]];portConstraint=eastwest;fontStyle=0;fontSize=16;" vertex="1" parent="_BmbQyzahC0__BQtfnTP-11">
          <mxGeometry y="26" width="140" height="26" as="geometry" />
        </mxCell>
        <mxCell id="_BmbQyzahC0__BQtfnTP-13" value="" style="line;strokeWidth=1;fillColor=none;align=left;verticalAlign=middle;spacingTop=-1;spacingLeft=3;spacingRight=3;rotatable=0;labelPosition=right;points=[];portConstraint=eastwest;strokeColor=inherit;fontSize=16;" vertex="1" parent="_BmbQyzahC0__BQtfnTP-11">
          <mxGeometry y="52" width="140" height="8" as="geometry" />
        </mxCell>
        <mxCell id="_BmbQyzahC0__BQtfnTP-14" value="+ Link(root: Root)" style="text;strokeColor=none;fillColor=none;align=left;verticalAlign=top;spacingLeft=4;spacingRight=4;overflow=hidden;rotatable=0;points=[[0,0.5],[1,0.5]];portConstraint=eastwest;fontSize=16;" vertex="1" parent="_BmbQyzahC0__BQtfnTP-11">
          <mxGeometry y="60" width="140" height="26" as="geometry" />
        </mxCell>
        <mxCell id="_BmbQyzahC0__BQtfnTP-15" value="NonLeafNode" style="swimlane;fontStyle=3;align=center;verticalAlign=top;childLayout=stackLayout;horizontal=1;startSize=26;horizontalStack=0;resizeParent=1;resizeParentMax=0;resizeLast=0;collapsible=1;marginBottom=0;fontSize=16;" vertex="1" parent="1">
          <mxGeometry x="2640" y="-780" width="280" height="110" as="geometry" />
        </mxCell>
        <mxCell id="_BmbQyzahC0__BQtfnTP-16" value="- nodes: ArrayList&lt;Node&gt;" style="text;strokeColor=none;fillColor=none;align=left;verticalAlign=top;spacingLeft=4;spacingRight=4;overflow=hidden;rotatable=0;points=[[0,0.5],[1,0.5]];portConstraint=eastwest;fontStyle=2;fontSize=16;" vertex="1" parent="_BmbQyzahC0__BQtfnTP-15">
          <mxGeometry y="26" width="280" height="26" as="geometry" />
        </mxCell>
        <mxCell id="_BmbQyzahC0__BQtfnTP-17" value="" style="line;strokeWidth=1;fillColor=none;align=left;verticalAlign=middle;spacingTop=-1;spacingLeft=3;spacingRight=3;rotatable=0;labelPosition=right;points=[];portConstraint=eastwest;strokeColor=inherit;fontSize=16;" vertex="1" parent="_BmbQyzahC0__BQtfnTP-15">
          <mxGeometry y="52" width="280" height="8" as="geometry" />
        </mxCell>
        <mxCell id="_BmbQyzahC0__BQtfnTP-18" value="+ addNode(node: Node): boolean&#xa;+ removeNode(node: Node): boolean" style="text;strokeColor=none;fillColor=none;align=left;verticalAlign=top;spacingLeft=4;spacingRight=4;overflow=hidden;rotatable=0;points=[[0,0.5],[1,0.5]];portConstraint=eastwest;fontStyle=2;fontSize=16;" vertex="1" parent="_BmbQyzahC0__BQtfnTP-15">
          <mxGeometry y="60" width="280" height="50" as="geometry" />
        </mxCell>
        <mxCell id="_BmbQyzahC0__BQtfnTP-19" value="Selector" style="swimlane;fontStyle=3;align=center;verticalAlign=top;childLayout=stackLayout;horizontal=1;startSize=26;horizontalStack=0;resizeParent=1;resizeParentMax=0;resizeLast=0;collapsible=1;marginBottom=0;fontSize=16;" vertex="1" parent="1">
          <mxGeometry x="2749" y="-610" width="70" height="34" as="geometry" />
        </mxCell>
        <mxCell id="_BmbQyzahC0__BQtfnTP-20" value="" style="line;strokeWidth=1;fillColor=none;align=left;verticalAlign=middle;spacingTop=-1;spacingLeft=3;spacingRight=3;rotatable=0;labelPosition=right;points=[];portConstraint=eastwest;strokeColor=inherit;fontSize=16;" vertex="1" parent="_BmbQyzahC0__BQtfnTP-19">
          <mxGeometry y="26" width="70" height="8" as="geometry" />
        </mxCell>
        <mxCell id="_BmbQyzahC0__BQtfnTP-21" value="Sequence" style="swimlane;fontStyle=3;align=center;verticalAlign=top;childLayout=stackLayout;horizontal=1;startSize=26;horizontalStack=0;resizeParent=1;resizeParentMax=0;resizeLast=0;collapsible=1;marginBottom=0;fontSize=16;" vertex="1" parent="1">
          <mxGeometry x="2650" y="-610" width="80" height="34" as="geometry" />
        </mxCell>
        <mxCell id="_BmbQyzahC0__BQtfnTP-22" value="" style="line;strokeWidth=1;fillColor=none;align=left;verticalAlign=middle;spacingTop=-1;spacingLeft=3;spacingRight=3;rotatable=0;labelPosition=right;points=[];portConstraint=eastwest;strokeColor=inherit;fontSize=16;" vertex="1" parent="_BmbQyzahC0__BQtfnTP-21">
          <mxGeometry y="26" width="80" height="8" as="geometry" />
        </mxCell>
        <mxCell id="_BmbQyzahC0__BQtfnTP-23" value="Decorator" style="swimlane;fontStyle=3;align=center;verticalAlign=top;childLayout=stackLayout;horizontal=1;startSize=26;horizontalStack=0;resizeParent=1;resizeParentMax=0;resizeLast=0;collapsible=1;marginBottom=0;fontSize=16;" vertex="1" parent="1">
          <mxGeometry x="2940" y="-634" width="90" height="34" as="geometry" />
        </mxCell>
        <mxCell id="_BmbQyzahC0__BQtfnTP-24" value="" style="line;strokeWidth=1;fillColor=none;align=left;verticalAlign=middle;spacingTop=-1;spacingLeft=3;spacingRight=3;rotatable=0;labelPosition=right;points=[];portConstraint=eastwest;strokeColor=inherit;fontSize=16;" vertex="1" parent="_BmbQyzahC0__BQtfnTP-23">
          <mxGeometry y="26" width="90" height="8" as="geometry" />
        </mxCell>
        <mxCell id="_BmbQyzahC0__BQtfnTP-25" value="Parallel" style="swimlane;fontStyle=3;align=center;verticalAlign=top;childLayout=stackLayout;horizontal=1;startSize=26;horizontalStack=0;resizeParent=1;resizeParentMax=0;resizeLast=0;collapsible=1;marginBottom=0;fontSize=16;" vertex="1" parent="1">
          <mxGeometry x="2834" y="-610" width="60" height="34" as="geometry" />
        </mxCell>
        <mxCell id="_BmbQyzahC0__BQtfnTP-26" value="" style="line;strokeWidth=1;fillColor=none;align=left;verticalAlign=middle;spacingTop=-1;spacingLeft=3;spacingRight=3;rotatable=0;labelPosition=right;points=[];portConstraint=eastwest;strokeColor=inherit;fontSize=16;" vertex="1" parent="_BmbQyzahC0__BQtfnTP-25">
          <mxGeometry y="26" width="60" height="8" as="geometry" />
        </mxCell>
        <mxCell id="_BmbQyzahC0__BQtfnTP-27" value="&lt;&lt;Utility&gt;&gt;&#xa;WorkerUtility" style="swimlane;fontStyle=1;align=center;verticalAlign=top;childLayout=stackLayout;horizontal=1;startSize=50;horizontalStack=0;resizeParent=1;resizeParentMax=0;resizeLast=0;collapsible=1;marginBottom=0;fontSize=16;" vertex="1" parent="1">
          <mxGeometry x="3495" y="-870" width="310" height="90" as="geometry" />
        </mxCell>
        <mxCell id="_BmbQyzahC0__BQtfnTP-28" value="" style="line;strokeWidth=1;fillColor=none;align=left;verticalAlign=middle;spacingTop=-1;spacingLeft=3;spacingRight=3;rotatable=0;labelPosition=right;points=[];portConstraint=eastwest;strokeColor=inherit;fontSize=16;" vertex="1" parent="_BmbQyzahC0__BQtfnTP-27">
          <mxGeometry y="50" width="310" height="8" as="geometry" />
        </mxCell>
        <mxCell id="_BmbQyzahC0__BQtfnTP-29" value="+ *static methods for worker unit&#39;s actions*" style="text;strokeColor=none;fillColor=none;align=left;verticalAlign=top;spacingLeft=4;spacingRight=4;overflow=hidden;rotatable=0;points=[[0,0.5],[1,0.5]];portConstraint=eastwest;fontSize=16;" vertex="1" parent="_BmbQyzahC0__BQtfnTP-27">
          <mxGeometry y="58" width="310" height="32" as="geometry" />
        </mxCell>
        <mxCell id="_BmbQyzahC0__BQtfnTP-30" value="&lt;&lt;Utility&gt;&gt;&#xa;MilitaryUtility" style="swimlane;fontStyle=1;align=center;verticalAlign=top;childLayout=stackLayout;horizontal=1;startSize=50;horizontalStack=0;resizeParent=1;resizeParentMax=0;resizeLast=0;collapsible=1;marginBottom=0;fontSize=16;" vertex="1" parent="1">
          <mxGeometry x="3525" y="-977" width="320" height="90" as="geometry" />
        </mxCell>
        <mxCell id="_BmbQyzahC0__BQtfnTP-31" value="" style="line;strokeWidth=1;fillColor=none;align=left;verticalAlign=middle;spacingTop=-1;spacingLeft=3;spacingRight=3;rotatable=0;labelPosition=right;points=[];portConstraint=eastwest;strokeColor=inherit;fontSize=16;" vertex="1" parent="_BmbQyzahC0__BQtfnTP-30">
          <mxGeometry y="50" width="320" height="8" as="geometry" />
        </mxCell>
        <mxCell id="_BmbQyzahC0__BQtfnTP-32" value="+ *static methods for military unit&#39;s actions*" style="text;strokeColor=none;fillColor=none;align=left;verticalAlign=top;spacingLeft=4;spacingRight=4;overflow=hidden;rotatable=0;points=[[0,0.5],[1,0.5]];portConstraint=eastwest;fontSize=16;" vertex="1" parent="_BmbQyzahC0__BQtfnTP-30">
          <mxGeometry y="58" width="320" height="32" as="geometry" />
        </mxCell>
        <mxCell id="_BmbQyzahC0__BQtfnTP-33" value="&lt;&lt;utility&gt;&gt;&#xa;BuildingsUtility" style="swimlane;fontStyle=1;align=center;verticalAlign=top;childLayout=stackLayout;horizontal=1;startSize=48;horizontalStack=0;resizeParent=1;resizeParentMax=0;resizeLast=0;collapsible=1;marginBottom=0;fontSize=16;" vertex="1" parent="1">
          <mxGeometry x="3545" y="-670" width="300" height="90" as="geometry" />
        </mxCell>
        <mxCell id="_BmbQyzahC0__BQtfnTP-34" value="" style="line;strokeWidth=1;fillColor=none;align=left;verticalAlign=middle;spacingTop=-1;spacingLeft=3;spacingRight=3;rotatable=0;labelPosition=right;points=[];portConstraint=eastwest;strokeColor=inherit;fontSize=16;" vertex="1" parent="_BmbQyzahC0__BQtfnTP-33">
          <mxGeometry y="48" width="300" height="8" as="geometry" />
        </mxCell>
        <mxCell id="_BmbQyzahC0__BQtfnTP-35" value="+ *static methods for building&#39;s actions*" style="text;strokeColor=none;fillColor=none;align=left;verticalAlign=top;spacingLeft=4;spacingRight=4;overflow=hidden;rotatable=0;points=[[0,0.5],[1,0.5]];portConstraint=eastwest;fontSize=16;" vertex="1" parent="_BmbQyzahC0__BQtfnTP-33">
          <mxGeometry y="56" width="300" height="34" as="geometry" />
        </mxCell>
        <mxCell id="_BmbQyzahC0__BQtfnTP-36" value="&lt;&lt;utility&gt;&gt;&#xa;UnitUtility" style="swimlane;fontStyle=1;align=center;verticalAlign=top;childLayout=stackLayout;horizontal=1;startSize=50;horizontalStack=0;resizeParent=1;resizeParentMax=0;resizeLast=0;collapsible=1;marginBottom=0;fontSize=16;" vertex="1" parent="1">
          <mxGeometry x="3830" y="-870" width="260" height="90" as="geometry" />
        </mxCell>
        <mxCell id="_BmbQyzahC0__BQtfnTP-37" value="" style="line;strokeWidth=1;fillColor=none;align=left;verticalAlign=middle;spacingTop=-1;spacingLeft=3;spacingRight=3;rotatable=0;labelPosition=right;points=[];portConstraint=eastwest;strokeColor=inherit;fontSize=16;" vertex="1" parent="_BmbQyzahC0__BQtfnTP-36">
          <mxGeometry y="50" width="260" height="8" as="geometry" />
        </mxCell>
        <mxCell id="_BmbQyzahC0__BQtfnTP-38" value="+ *static methods for unit&#39;s actions*" style="text;strokeColor=none;fillColor=none;align=left;verticalAlign=top;spacingLeft=4;spacingRight=4;overflow=hidden;rotatable=0;points=[[0,0.5],[1,0.5]];portConstraint=eastwest;fontStyle=0;fontSize=16;" vertex="1" parent="_BmbQyzahC0__BQtfnTP-36">
          <mxGeometry y="58" width="260" height="32" as="geometry" />
        </mxCell>
        <mxCell id="_BmbQyzahC0__BQtfnTP-39" value="&lt;&lt;utility&gt;&gt;&#xa;GameUtility" style="swimlane;fontStyle=1;align=center;verticalAlign=top;childLayout=stackLayout;horizontal=1;startSize=50;horizontalStack=0;resizeParent=1;resizeParentMax=0;resizeLast=0;collapsible=1;marginBottom=0;fontSize=16;" vertex="1" parent="1">
          <mxGeometry x="3495" y="-770" width="350" height="90" as="geometry" />
        </mxCell>
        <mxCell id="_BmbQyzahC0__BQtfnTP-40" value="" style="line;strokeWidth=1;fillColor=none;align=left;verticalAlign=middle;spacingTop=-1;spacingLeft=3;spacingRight=3;rotatable=0;labelPosition=right;points=[];portConstraint=eastwest;strokeColor=inherit;fontSize=16;" vertex="1" parent="_BmbQyzahC0__BQtfnTP-39">
          <mxGeometry y="50" width="350" height="8" as="geometry" />
        </mxCell>
        <mxCell id="_BmbQyzahC0__BQtfnTP-41" value="+ *static methods for getting game information*" style="text;strokeColor=none;fillColor=none;align=left;verticalAlign=top;spacingLeft=4;spacingRight=4;overflow=hidden;rotatable=0;points=[[0,0.5],[1,0.5]];portConstraint=eastwest;fontSize=16;" vertex="1" parent="_BmbQyzahC0__BQtfnTP-39">
          <mxGeometry y="58" width="350" height="32" as="geometry" />
        </mxCell>
        <mxCell id="_BmbQyzahC0__BQtfnTP-43" value="" style="endArrow=block;html=1;rounded=0;endSize=10;endFill=0;entryX=0.5;entryY=0;entryDx=0;entryDy=0;fontSize=16;exitX=1;exitY=0.5;exitDx=0;exitDy=0;" edge="1" parent="1" target="_BmbQyzahC0__BQtfnTP-36" source="_BmbQyzahC0__BQtfnTP-32">
          <mxGeometry width="50" height="50" relative="1" as="geometry">
            <mxPoint x="3825" y="-997" as="sourcePoint" />
            <mxPoint x="3822.6200000000003" y="-986.9999999999995" as="targetPoint" />
            <Array as="points" />
          </mxGeometry>
        </mxCell>
        <mxCell id="_BmbQyzahC0__BQtfnTP-44" value="" style="endArrow=none;html=1;rounded=0;endSize=10;exitX=0.5;exitY=0;exitDx=0;exitDy=0;entryX=0.5;entryY=0;entryDx=0;entryDy=0;fontSize=16;" edge="1" parent="1" source="_BmbQyzahC0__BQtfnTP-15" target="_BmbQyzahC0__BQtfnTP-5">
          <mxGeometry width="50" height="50" relative="1" as="geometry">
            <mxPoint x="2940" y="-780" as="sourcePoint" />
            <mxPoint x="3225" y="-780" as="targetPoint" />
            <Array as="points">
              <mxPoint x="2780" y="-800" />
              <mxPoint x="3340" y="-800" />
            </Array>
          </mxGeometry>
        </mxCell>
        <mxCell id="_BmbQyzahC0__BQtfnTP-45" value="" style="endArrow=block;html=1;rounded=0;endSize=10;endFill=0;fontSize=16;" edge="1" parent="1">
          <mxGeometry width="50" height="50" relative="1" as="geometry">
            <mxPoint x="2830" y="-800" as="sourcePoint" />
            <mxPoint x="2830" y="-820" as="targetPoint" />
          </mxGeometry>
        </mxCell>
        <mxCell id="_BmbQyzahC0__BQtfnTP-46" value="" style="endArrow=none;html=1;rounded=0;endSize=10;exitX=0.5;exitY=0;exitDx=0;exitDy=0;entryX=0.5;entryY=0;entryDx=0;entryDy=0;fontSize=16;" edge="1" parent="1" source="_BmbQyzahC0__BQtfnTP-7" target="_BmbQyzahC0__BQtfnTP-11">
          <mxGeometry width="50" height="50" relative="1" as="geometry">
            <mxPoint x="3060" y="-661" as="sourcePoint" />
            <mxPoint x="3345" y="-661" as="targetPoint" />
            <Array as="points">
              <mxPoint x="3240" y="-691" />
              <mxPoint x="3450" y="-691" />
            </Array>
          </mxGeometry>
        </mxCell>
        <mxCell id="_BmbQyzahC0__BQtfnTP-47" value="" style="endArrow=block;html=1;rounded=0;endSize=10;endFill=0;entryX=0.468;entryY=0.95;entryDx=0;entryDy=0;entryPerimeter=0;fontSize=16;" edge="1" parent="1" target="_BmbQyzahC0__BQtfnTP-6">
          <mxGeometry width="50" height="50" relative="1" as="geometry">
            <mxPoint x="3335" y="-690" as="sourcePoint" />
            <mxPoint x="3320" y="-740" as="targetPoint" />
          </mxGeometry>
        </mxCell>
        <mxCell id="_BmbQyzahC0__BQtfnTP-48" value="" style="endArrow=none;html=1;rounded=0;endSize=10;exitX=0.5;exitY=0;exitDx=0;exitDy=0;entryX=0.5;entryY=0;entryDx=0;entryDy=0;fontSize=16;" edge="1" parent="1" source="_BmbQyzahC0__BQtfnTP-21" target="_BmbQyzahC0__BQtfnTP-25">
          <mxGeometry width="50" height="50" relative="1" as="geometry">
            <mxPoint x="2521" y="-570" as="sourcePoint" />
            <mxPoint x="2711" y="-570" as="targetPoint" />
            <Array as="points">
              <mxPoint x="2690" y="-640" />
              <mxPoint x="2864" y="-640" />
            </Array>
          </mxGeometry>
        </mxCell>
        <mxCell id="_BmbQyzahC0__BQtfnTP-49" value="" style="endArrow=none;html=1;rounded=0;endSize=10;exitX=0.5;exitY=0;exitDx=0;exitDy=0;fontSize=16;" edge="1" parent="1" source="_BmbQyzahC0__BQtfnTP-19">
          <mxGeometry width="50" height="50" relative="1" as="geometry">
            <mxPoint x="2844" y="-570" as="sourcePoint" />
            <mxPoint x="2784" y="-640" as="targetPoint" />
          </mxGeometry>
        </mxCell>
        <mxCell id="_BmbQyzahC0__BQtfnTP-50" value="" style="endArrow=block;html=1;rounded=0;endSize=10;endFill=0;fontSize=16;" edge="1" parent="1">
          <mxGeometry width="50" height="50" relative="1" as="geometry">
            <mxPoint x="2780" y="-640" as="sourcePoint" />
            <mxPoint x="2780" y="-670" as="targetPoint" />
            <Array as="points" />
          </mxGeometry>
        </mxCell>
        <mxCell id="_BmbQyzahC0__BQtfnTP-51" value="Root" style="swimlane;fontStyle=3;align=center;verticalAlign=top;childLayout=stackLayout;horizontal=1;startSize=26;horizontalStack=0;resizeParent=1;resizeParentMax=0;resizeLast=0;collapsible=1;marginBottom=0;fontSize=16;" vertex="1" parent="1">
          <mxGeometry x="3100" y="-634" width="70" height="34" as="geometry" />
        </mxCell>
        <mxCell id="_BmbQyzahC0__BQtfnTP-52" value="" style="line;strokeWidth=1;fillColor=none;align=left;verticalAlign=middle;spacingTop=-1;spacingLeft=3;spacingRight=3;rotatable=0;labelPosition=right;points=[];portConstraint=eastwest;strokeColor=inherit;fontSize=16;" vertex="1" parent="_BmbQyzahC0__BQtfnTP-51">
          <mxGeometry y="26" width="70" height="8" as="geometry" />
        </mxCell>
        <mxCell id="_BmbQyzahC0__BQtfnTP-53" value="BehaviorTree" style="swimlane;fontStyle=3;align=center;verticalAlign=top;childLayout=stackLayout;horizontal=1;startSize=26;horizontalStack=0;resizeParent=1;resizeParentMax=0;resizeLast=0;collapsible=1;marginBottom=0;fontSize=16;" vertex="1" parent="1">
          <mxGeometry x="3005" y="-1080" width="180" height="90" as="geometry" />
        </mxCell>
        <mxCell id="_BmbQyzahC0__BQtfnTP-54" value="# root: Root" style="text;strokeColor=none;fillColor=none;align=left;verticalAlign=top;spacingLeft=4;spacingRight=4;overflow=hidden;rotatable=0;points=[[0,0.5],[1,0.5]];portConstraint=eastwest;fontStyle=2;fontSize=16;" vertex="1" parent="_BmbQyzahC0__BQtfnTP-53">
          <mxGeometry y="26" width="180" height="24" as="geometry" />
        </mxCell>
        <mxCell id="_BmbQyzahC0__BQtfnTP-55" value="" style="line;strokeWidth=1;fillColor=none;align=left;verticalAlign=middle;spacingTop=-1;spacingLeft=3;spacingRight=3;rotatable=0;labelPosition=right;points=[];portConstraint=eastwest;strokeColor=inherit;fontSize=16;" vertex="1" parent="_BmbQyzahC0__BQtfnTP-53">
          <mxGeometry y="50" width="180" height="8" as="geometry" />
        </mxCell>
        <mxCell id="_BmbQyzahC0__BQtfnTP-56" value="+ runTree(): void" style="text;strokeColor=none;fillColor=none;align=left;verticalAlign=top;spacingLeft=4;spacingRight=4;overflow=hidden;rotatable=0;points=[[0,0.5],[1,0.5]];portConstraint=eastwest;fontStyle=2;fontSize=16;" vertex="1" parent="_BmbQyzahC0__BQtfnTP-53">
          <mxGeometry y="58" width="180" height="32" as="geometry" />
        </mxCell>
        <mxCell id="_BmbQyzahC0__BQtfnTP-57" value="GlobalBT" style="swimlane;fontStyle=1;align=center;verticalAlign=top;childLayout=stackLayout;horizontal=1;startSize=26;horizontalStack=0;resizeParent=1;resizeParentMax=0;resizeLast=0;collapsible=1;marginBottom=0;fontSize=16;" vertex="1" parent="1">
          <mxGeometry x="2970" y="-950" width="190" height="80" as="geometry" />
        </mxCell>
        <mxCell id="_BmbQyzahC0__BQtfnTP-58" value="" style="line;strokeWidth=1;fillColor=none;align=left;verticalAlign=middle;spacingTop=-1;spacingLeft=3;spacingRight=3;rotatable=0;labelPosition=right;points=[];portConstraint=eastwest;strokeColor=inherit;fontSize=16;" vertex="1" parent="_BmbQyzahC0__BQtfnTP-57">
          <mxGeometry y="26" width="190" height="8" as="geometry" />
        </mxCell>
        <mxCell id="_BmbQyzahC0__BQtfnTP-59" value="- GlobalBT()&#xa;+ getInstance: GlobalBT" style="text;strokeColor=none;fillColor=none;align=left;verticalAlign=top;spacingLeft=4;spacingRight=4;overflow=hidden;rotatable=0;points=[[0,0.5],[1,0.5]];portConstraint=eastwest;fontStyle=2;fontSize=16;" vertex="1" parent="_BmbQyzahC0__BQtfnTP-57">
          <mxGeometry y="34" width="190" height="46" as="geometry" />
        </mxCell>
        <mxCell id="_BmbQyzahC0__BQtfnTP-60" value="BuildBaseBT" style="swimlane;fontStyle=1;align=center;verticalAlign=top;childLayout=stackLayout;horizontal=1;startSize=26;horizontalStack=0;resizeParent=1;resizeParentMax=0;resizeLast=0;collapsible=1;marginBottom=0;fontSize=16;" vertex="1" parent="1">
          <mxGeometry x="3335" y="-940" width="160" height="34" as="geometry" />
        </mxCell>
        <mxCell id="_BmbQyzahC0__BQtfnTP-61" value="" style="line;strokeWidth=1;fillColor=none;align=left;verticalAlign=middle;spacingTop=-1;spacingLeft=3;spacingRight=3;rotatable=0;labelPosition=right;points=[];portConstraint=eastwest;strokeColor=inherit;fontSize=16;" vertex="1" parent="_BmbQyzahC0__BQtfnTP-60">
          <mxGeometry y="26" width="160" height="8" as="geometry" />
        </mxCell>
        <mxCell id="_BmbQyzahC0__BQtfnTP-63" value="DefaultBT" style="swimlane;fontStyle=1;align=center;verticalAlign=top;childLayout=stackLayout;horizontal=1;startSize=26;horizontalStack=0;resizeParent=1;resizeParentMax=0;resizeLast=0;collapsible=1;marginBottom=0;fontSize=16;" vertex="1" parent="1">
          <mxGeometry x="3175" y="-940" width="150" height="34" as="geometry" />
        </mxCell>
        <mxCell id="_BmbQyzahC0__BQtfnTP-64" value="" style="line;strokeWidth=1;fillColor=none;align=left;verticalAlign=middle;spacingTop=-1;spacingLeft=3;spacingRight=3;rotatable=0;labelPosition=right;points=[];portConstraint=eastwest;strokeColor=inherit;fontSize=16;" vertex="1" parent="_BmbQyzahC0__BQtfnTP-63">
          <mxGeometry y="26" width="150" height="8" as="geometry" />
        </mxCell>
        <mxCell id="_BmbQyzahC0__BQtfnTP-66" value="TraintUnitsBT" style="swimlane;fontStyle=1;align=center;verticalAlign=top;childLayout=stackLayout;horizontal=1;startSize=26;horizontalStack=0;resizeParent=1;resizeParentMax=0;resizeLast=0;collapsible=1;marginBottom=0;fontSize=16;" vertex="1" parent="1">
          <mxGeometry x="3015" y="-850" width="160" height="34" as="geometry" />
        </mxCell>
        <mxCell id="_BmbQyzahC0__BQtfnTP-67" value="" style="line;strokeWidth=1;fillColor=none;align=left;verticalAlign=middle;spacingTop=-1;spacingLeft=3;spacingRight=3;rotatable=0;labelPosition=right;points=[];portConstraint=eastwest;strokeColor=inherit;fontSize=16;" vertex="1" parent="_BmbQyzahC0__BQtfnTP-66">
          <mxGeometry y="26" width="160" height="8" as="geometry" />
        </mxCell>
        <mxCell id="_BmbQyzahC0__BQtfnTP-69" value="ScoutBT" style="swimlane;fontStyle=1;align=center;verticalAlign=top;childLayout=stackLayout;horizontal=1;startSize=26;horizontalStack=0;resizeParent=1;resizeParentMax=0;resizeLast=0;collapsible=1;marginBottom=0;fontSize=16;" vertex="1" parent="1">
          <mxGeometry x="3185" y="-850" width="140" height="34" as="geometry" />
        </mxCell>
        <mxCell id="_BmbQyzahC0__BQtfnTP-70" value="" style="line;strokeWidth=1;fillColor=none;align=left;verticalAlign=middle;spacingTop=-1;spacingLeft=3;spacingRight=3;rotatable=0;labelPosition=right;points=[];portConstraint=eastwest;strokeColor=inherit;fontSize=16;" vertex="1" parent="_BmbQyzahC0__BQtfnTP-69">
          <mxGeometry y="26" width="140" height="8" as="geometry" />
        </mxCell>
        <mxCell id="_BmbQyzahC0__BQtfnTP-72" value="AttackBT" style="swimlane;fontStyle=1;align=center;verticalAlign=top;childLayout=stackLayout;horizontal=1;startSize=26;horizontalStack=0;resizeParent=1;resizeParentMax=0;resizeLast=0;collapsible=1;marginBottom=0;fontSize=16;" vertex="1" parent="1">
          <mxGeometry x="3335" y="-850" width="140" height="34" as="geometry" />
        </mxCell>
        <mxCell id="_BmbQyzahC0__BQtfnTP-73" value="" style="line;strokeWidth=1;fillColor=none;align=left;verticalAlign=middle;spacingTop=-1;spacingLeft=3;spacingRight=3;rotatable=0;labelPosition=right;points=[];portConstraint=eastwest;strokeColor=inherit;fontSize=16;" vertex="1" parent="_BmbQyzahC0__BQtfnTP-72">
          <mxGeometry y="26" width="140" height="8" as="geometry" />
        </mxCell>
        <mxCell id="_BmbQyzahC0__BQtfnTP-75" value="" style="endArrow=none;html=1;rounded=0;endSize=10;exitX=0.5;exitY=0;exitDx=0;exitDy=0;entryX=0.5;entryY=0;entryDx=0;entryDy=0;fontSize=16;" edge="1" parent="1" source="_BmbQyzahC0__BQtfnTP-57" target="_BmbQyzahC0__BQtfnTP-60">
          <mxGeometry width="50" height="50" relative="1" as="geometry">
            <mxPoint x="3057" y="-940" as="sourcePoint" />
            <mxPoint x="3615" y="-930" as="targetPoint" />
            <Array as="points">
              <mxPoint x="3065" y="-970" />
              <mxPoint x="3190" y="-970" />
              <mxPoint x="3415" y="-970" />
            </Array>
          </mxGeometry>
        </mxCell>
        <mxCell id="_BmbQyzahC0__BQtfnTP-76" value="" style="endArrow=none;html=1;rounded=0;endSize=10;exitX=0.5;exitY=0;exitDx=0;exitDy=0;fontSize=16;" edge="1" parent="1" source="_BmbQyzahC0__BQtfnTP-69">
          <mxGeometry width="50" height="50" relative="1" as="geometry">
            <mxPoint x="3215" y="-850" as="sourcePoint" />
            <mxPoint x="3255" y="-860" as="targetPoint" />
            <Array as="points">
              <mxPoint x="3255" y="-850" />
            </Array>
          </mxGeometry>
        </mxCell>
        <mxCell id="_BmbQyzahC0__BQtfnTP-77" value="" style="endArrow=none;html=1;rounded=0;endSize=10;entryX=0.5;entryY=0;entryDx=0;entryDy=0;fontSize=16;" edge="1" parent="1" target="_BmbQyzahC0__BQtfnTP-63">
          <mxGeometry width="50" height="50" relative="1" as="geometry">
            <mxPoint x="3250" y="-970" as="sourcePoint" />
            <mxPoint x="3337" y="-950" as="targetPoint" />
          </mxGeometry>
        </mxCell>
        <mxCell id="_BmbQyzahC0__BQtfnTP-78" value="" style="endArrow=block;html=1;rounded=0;endSize=10;endFill=0;entryX=0.487;entryY=1.061;entryDx=0;entryDy=0;entryPerimeter=0;fontSize=16;" edge="1" parent="1" target="_BmbQyzahC0__BQtfnTP-56">
          <mxGeometry width="50" height="50" relative="1" as="geometry">
            <mxPoint x="3095" y="-970" as="sourcePoint" />
            <mxPoint x="3117" y="-970" as="targetPoint" />
          </mxGeometry>
        </mxCell>
        <mxCell id="_BmbQyzahC0__BQtfnTP-83" value="BlackBoard" style="swimlane;fontStyle=1;align=center;verticalAlign=top;childLayout=stackLayout;horizontal=1;startSize=26;horizontalStack=0;resizeParent=1;resizeParentMax=0;resizeLast=0;collapsible=1;marginBottom=0;fontSize=16;" vertex="1" parent="1">
          <mxGeometry x="2640" y="-1050" width="310" height="90" as="geometry" />
        </mxCell>
        <mxCell id="_BmbQyzahC0__BQtfnTP-84" value="- blackBoard: HashMap&lt;String, Object&gt;" style="text;strokeColor=none;fillColor=none;align=left;verticalAlign=top;spacingLeft=4;spacingRight=4;overflow=hidden;rotatable=0;points=[[0,0.5],[1,0.5]];portConstraint=eastwest;fontSize=16;" vertex="1" parent="_BmbQyzahC0__BQtfnTP-83">
          <mxGeometry y="26" width="310" height="26" as="geometry" />
        </mxCell>
        <mxCell id="_BmbQyzahC0__BQtfnTP-85" value="" style="line;strokeWidth=1;fillColor=none;align=left;verticalAlign=middle;spacingTop=-1;spacingLeft=3;spacingRight=3;rotatable=0;labelPosition=right;points=[];portConstraint=eastwest;strokeColor=inherit;fontSize=16;" vertex="1" parent="_BmbQyzahC0__BQtfnTP-83">
          <mxGeometry y="52" width="310" height="8" as="geometry" />
        </mxCell>
        <mxCell id="_BmbQyzahC0__BQtfnTP-86" value="+ *methods for mapping*" style="text;strokeColor=none;fillColor=none;align=left;verticalAlign=top;spacingLeft=4;spacingRight=4;overflow=hidden;rotatable=0;points=[[0,0.5],[1,0.5]];portConstraint=eastwest;fontSize=16;" vertex="1" parent="_BmbQyzahC0__BQtfnTP-83">
          <mxGeometry y="60" width="310" height="30" as="geometry" />
        </mxCell>
        <mxCell id="_BmbQyzahC0__BQtfnTP-87" value="OnlyOneChildNode" style="swimlane;fontStyle=3;align=center;verticalAlign=top;childLayout=stackLayout;horizontal=1;startSize=26;horizontalStack=0;resizeParent=1;resizeParentMax=0;resizeLast=0;collapsible=1;marginBottom=0;fontSize=16;" vertex="1" parent="1">
          <mxGeometry x="2940" y="-780" width="290" height="90" as="geometry" />
        </mxCell>
        <mxCell id="_BmbQyzahC0__BQtfnTP-88" value="# childNode: Node" style="text;strokeColor=none;fillColor=none;align=left;verticalAlign=top;spacingLeft=4;spacingRight=4;overflow=hidden;rotatable=0;points=[[0,0.5],[1,0.5]];portConstraint=eastwest;fontStyle=2;fontSize=16;" vertex="1" parent="_BmbQyzahC0__BQtfnTP-87">
          <mxGeometry y="26" width="290" height="26" as="geometry" />
        </mxCell>
        <mxCell id="_BmbQyzahC0__BQtfnTP-89" value="" style="line;strokeWidth=1;fillColor=none;align=left;verticalAlign=middle;spacingTop=-1;spacingLeft=3;spacingRight=3;rotatable=0;labelPosition=right;points=[];portConstraint=eastwest;strokeColor=inherit;fontSize=16;" vertex="1" parent="_BmbQyzahC0__BQtfnTP-87">
          <mxGeometry y="52" width="290" height="8" as="geometry" />
        </mxCell>
        <mxCell id="_BmbQyzahC0__BQtfnTP-90" value="+ setChildNode(childNode: Node): void" style="text;strokeColor=none;fillColor=none;align=left;verticalAlign=top;spacingLeft=4;spacingRight=4;overflow=hidden;rotatable=0;points=[[0,0.5],[1,0.5]];portConstraint=eastwest;fontStyle=2;fontSize=16;" vertex="1" parent="_BmbQyzahC0__BQtfnTP-87">
          <mxGeometry y="60" width="290" height="30" as="geometry" />
        </mxCell>
        <mxCell id="_BmbQyzahC0__BQtfnTP-91" value="" style="endArrow=none;html=1;rounded=0;endSize=10;exitX=0.5;exitY=0;exitDx=0;exitDy=0;entryX=0.5;entryY=0;entryDx=0;entryDy=0;fontSize=16;" edge="1" parent="1" source="_BmbQyzahC0__BQtfnTP-23" target="_BmbQyzahC0__BQtfnTP-51">
          <mxGeometry width="50" height="50" relative="1" as="geometry">
            <mxPoint x="3215" y="-814" as="sourcePoint" />
            <mxPoint x="3220" y="-690" as="targetPoint" />
            <Array as="points">
              <mxPoint x="2985" y="-660" />
              <mxPoint x="3135" y="-660" />
            </Array>
          </mxGeometry>
        </mxCell>
        <mxCell id="_BmbQyzahC0__BQtfnTP-92" value="" style="endArrow=block;html=1;rounded=0;endSize=10;endFill=0;entryX=0.44;entryY=0.99;entryDx=0;entryDy=0;entryPerimeter=0;fontSize=16;" edge="1" parent="1" target="_BmbQyzahC0__BQtfnTP-90">
          <mxGeometry width="50" height="50" relative="1" as="geometry">
            <mxPoint x="3068" y="-660" as="sourcePoint" />
            <mxPoint x="3730" y="-570" as="targetPoint" />
          </mxGeometry>
        </mxCell>
        <mxCell id="_BmbQyzahC0__BQtfnTP-93" value="" style="endArrow=none;html=1;rounded=0;endSize=10;exitX=0.5;exitY=0;exitDx=0;exitDy=0;entryX=0.5;entryY=0;entryDx=0;entryDy=0;fontSize=16;" edge="1" parent="1" source="_BmbQyzahC0__BQtfnTP-66" target="_BmbQyzahC0__BQtfnTP-72">
          <mxGeometry width="50" height="50" relative="1" as="geometry">
            <mxPoint x="3385" y="-1050" as="sourcePoint" />
            <mxPoint x="3705" y="-1050" as="targetPoint" />
            <Array as="points">
              <mxPoint x="3095" y="-860" />
              <mxPoint x="3405" y="-860" />
            </Array>
          </mxGeometry>
        </mxCell>
        <mxCell id="_BmbQyzahC0__BQtfnTP-94" value="" style="endArrow=none;html=1;rounded=0;endSize=10;fontSize=16;" edge="1" parent="1">
          <mxGeometry width="50" height="50" relative="1" as="geometry">
            <mxPoint x="3329" y="-860" as="sourcePoint" />
            <mxPoint x="3329" y="-970" as="targetPoint" />
            <Array as="points">
              <mxPoint x="3329.38" y="-860" />
            </Array>
          </mxGeometry>
        </mxCell>
        <mxCell id="_BmbQyzahC0__BQtfnTP-95" value="" style="endArrow=block;html=1;rounded=0;endSize=10;endFill=0;entryX=0;entryY=0.25;entryDx=0;entryDy=0;fontSize=16;exitX=1;exitY=0.25;exitDx=0;exitDy=0;" edge="1" parent="1" source="_BmbQyzahC0__BQtfnTP-27" target="_BmbQyzahC0__BQtfnTP-36">
          <mxGeometry width="50" height="50" relative="1" as="geometry">
            <mxPoint x="3650" y="-965" as="sourcePoint" />
            <mxPoint x="3649" y="-1010" as="targetPoint" />
            <Array as="points" />
          </mxGeometry>
        </mxCell>
        <mxCell id="_BmbQyzahC0__BQtfnTP-96" value="" style="endArrow=none;html=1;rounded=0;exitX=0.5;exitY=0;exitDx=0;exitDy=0;" edge="1" parent="1" source="_BmbQyzahC0__BQtfnTP-9">
          <mxGeometry width="50" height="50" relative="1" as="geometry">
            <mxPoint x="3220" y="-840" as="sourcePoint" />
            <mxPoint x="3325" y="-690" as="targetPoint" />
          </mxGeometry>
        </mxCell>
      </root>
    </mxGraphModel>
  </diagram>
</mxfile>
